<svg width="293" height="52" viewBox="0 0 293 52" fill="none" xmlns="http://www.w3.org/2000/svg">
<mask id="path-1-outside-1_0_1" maskUnits="userSpaceOnUse" x="1.17969" y="2.45312" width="224" height="49" fill="black">
<rect fill="white" x="1.17969" y="2.45312" width="224" height="49"/>
<path d="M10.3487 49.4531H3.16118C2.95285 49.4531 2.84868 49.349 2.84868 49.1406L2.97368 5.17188C2.97368 5.00521 3.05701 4.92188 3.22368 4.92188H15.5362C19.4528 4.92188 22.5466 6.11979 24.8174 8.51562C27.1091 10.8906 28.2549 14.1302 28.2549 18.2344C28.2549 21.2344 27.6612 23.849 26.4737 26.0781C25.2653 28.2865 23.7028 29.9948 21.7862 31.2031C19.8695 32.4115 17.7862 33.0156 15.5362 33.0156H10.6612V49.1406C10.6612 49.349 10.557 49.4531 10.3487 49.4531ZM15.5362 12.5156L10.6612 12.5781V25.2656H15.5362C16.8903 25.2656 18.0674 24.6198 19.0674 23.3281C20.0674 22.0156 20.5674 20.3177 20.5674 18.2344C20.5674 16.5677 20.1195 15.2031 19.2237 14.1406C18.3278 13.0573 17.0987 12.5156 15.5362 12.5156ZM39.5987 49.4531H32.3487C32.182 49.4531 32.0987 49.349 32.0987 49.1406L32.2237 5.17188C32.2237 5.00521 32.307 4.92188 32.4737 4.92188H45.4112C47.7237 4.92188 49.8487 5.48438 51.7862 6.60938C53.7237 7.73438 55.2653 9.24479 56.4112 11.1406C57.5778 13.0365 58.1612 15.1823 58.1612 17.5781C58.1612 19.1406 57.9216 20.5573 57.4424 21.8281C56.9633 23.099 56.4008 24.1719 55.7549 25.0469C55.1299 25.9219 54.557 26.5677 54.0362 26.9844C56.3487 29.5469 57.5049 32.5573 57.5049 36.0156L57.5674 49.1406C57.5674 49.349 57.4633 49.4531 57.2549 49.4531H50.0049C49.8383 49.4531 49.7549 49.3906 49.7549 49.2656V36.0156C49.7549 34.474 49.2133 33.1406 48.1299 32.0156C47.0466 30.8906 45.7133 30.3281 44.1299 30.3281H39.9112L39.8487 49.1406C39.8487 49.349 39.7653 49.4531 39.5987 49.4531ZM45.4112 12.5781H39.9112V22.6406H45.4112C46.7237 22.6406 47.8903 22.151 48.9112 21.1719C49.9528 20.1927 50.4737 18.9948 50.4737 17.5781C50.4737 16.224 49.9737 15.0573 48.9737 14.0781C47.9737 13.0781 46.7862 12.5781 45.4112 12.5781ZM73.5049 50.0781C71.2341 50.0781 69.1403 49.4948 67.2237 48.3281C65.3278 47.1615 63.7966 45.6094 62.6299 43.6719C61.4841 41.7135 60.9112 39.5677 60.9112 37.2344L60.9737 16.9531C60.9737 14.5781 61.5466 12.4427 62.6924 10.5469C63.8174 8.63021 65.3383 7.09896 67.2549 5.95312C69.1716 4.78646 71.2549 4.20312 73.5049 4.20312C75.8383 4.20312 77.932 4.77604 79.7862 5.92188C81.6612 7.06771 83.1612 8.60938 84.2862 10.5469C85.432 12.4635 86.0049 14.599 86.0049 16.9531L86.0674 37.2344C86.0674 39.5677 85.5049 41.7031 84.3799 43.6406C83.2341 45.599 81.7133 47.1615 79.8174 48.3281C77.9216 49.4948 75.8174 50.0781 73.5049 50.0781ZM73.5049 42.3594C74.7966 42.3594 75.9216 41.8385 76.8799 40.7969C77.8383 39.7344 78.3174 38.5469 78.3174 37.2344L78.2549 16.9531C78.2549 15.5365 77.807 14.3385 76.9112 13.3594C76.0153 12.3802 74.8799 11.8906 73.5049 11.8906C72.1924 11.8906 71.0674 12.3698 70.1299 13.3281C69.1924 14.2865 68.7237 15.4948 68.7237 16.9531V37.2344C68.7237 38.6302 69.1924 39.8385 70.1299 40.8594C71.0674 41.8594 72.1924 42.3594 73.5049 42.3594ZM101.411 50.0781C99.057 50.0781 96.9216 49.5156 95.0049 48.3906C93.1091 47.2656 91.6091 45.7135 90.5049 43.7344C89.4216 41.7344 88.8799 39.5052 88.8799 37.0469V34.0781C88.8799 33.9115 88.9633 33.8281 89.1299 33.8281H96.3799C96.5466 33.8281 96.6299 33.9427 96.6299 34.1719V37.0469C96.6299 38.6094 97.0778 39.8906 97.9737 40.8906C98.8695 41.8698 100.015 42.3594 101.411 42.3594C102.703 42.3594 103.817 41.8281 104.755 40.7656C105.692 39.6823 106.161 38.4427 106.161 37.0469V5.23438C106.161 5.06771 106.245 4.98438 106.411 4.98438H113.599C113.765 4.98438 113.849 5.08854 113.849 5.29688L113.911 37.0469C113.911 39.3802 113.349 41.5365 112.224 43.5156C111.078 45.5156 109.567 47.1094 107.692 48.2969C105.817 49.4844 103.724 50.0781 101.411 50.0781ZM132.38 49.4531H125.161C124.974 49.4531 124.88 49.349 124.88 49.1406V12.6406H116.567C116.359 12.6406 116.255 12.5365 116.255 12.3281L116.317 5.17188C116.317 5.00521 116.401 4.92188 116.567 4.92188H140.88C141.109 4.92188 141.224 5.00521 141.224 5.17188V12.3281C141.224 12.5365 141.14 12.6406 140.974 12.6406H132.567L132.63 49.1406C132.63 49.349 132.547 49.4531 132.38 49.4531ZM151.849 49.4531H144.599C144.432 49.4531 144.349 49.349 144.349 49.1406L144.474 5.17188C144.474 5.00521 144.557 4.92188 144.724 4.92188H157.661C159.974 4.92188 162.099 5.48438 164.036 6.60938C165.974 7.73438 167.515 9.24479 168.661 11.1406C169.828 13.0365 170.411 15.1823 170.411 17.5781C170.411 19.1406 170.172 20.5573 169.692 21.8281C169.213 23.099 168.651 24.1719 168.005 25.0469C167.38 25.9219 166.807 26.5677 166.286 26.9844C168.599 29.5469 169.755 32.5573 169.755 36.0156L169.817 49.1406C169.817 49.349 169.713 49.4531 169.505 49.4531H162.255C162.088 49.4531 162.005 49.3906 162.005 49.2656V36.0156C162.005 34.474 161.463 33.1406 160.38 32.0156C159.297 30.8906 157.963 30.3281 156.38 30.3281H152.161L152.099 49.1406C152.099 49.349 152.015 49.4531 151.849 49.4531ZM157.661 12.5781H152.161V22.6406H157.661C158.974 22.6406 160.14 22.151 161.161 21.1719C162.203 20.1927 162.724 18.9948 162.724 17.5781C162.724 16.224 162.224 15.0573 161.224 14.0781C160.224 13.0781 159.036 12.5781 157.661 12.5781ZM196.161 49.4531H175.474C175.307 49.4531 175.224 49.349 175.224 49.1406L175.286 5.17188C175.286 5.00521 175.37 4.92188 175.536 4.92188H196.099C196.265 4.92188 196.349 5.02604 196.349 5.23438V12.3906C196.349 12.5573 196.265 12.6406 196.099 12.6406H182.974V22.6406H196.099C196.265 22.6406 196.349 22.724 196.349 22.8906L196.411 30.1406C196.411 30.3073 196.328 30.3906 196.161 30.3906H182.974V41.5781H196.161C196.328 41.5781 196.411 41.6823 196.411 41.8906V49.2031C196.411 49.3698 196.328 49.4531 196.161 49.4531ZM223.036 49.4531H202.349C202.182 49.4531 202.099 49.349 202.099 49.1406L202.161 5.17188C202.161 5.00521 202.245 4.92188 202.411 4.92188H222.974C223.14 4.92188 223.224 5.02604 223.224 5.23438V12.3906C223.224 12.5573 223.14 12.6406 222.974 12.6406H209.849V22.6406H222.974C223.14 22.6406 223.224 22.724 223.224 22.8906L223.286 30.1406C223.286 30.3073 223.203 30.3906 223.036 30.3906H209.849V41.5781H223.036C223.203 41.5781 223.286 41.6823 223.286 41.8906V49.2031C223.286 49.3698 223.203 49.4531 223.036 49.4531Z"/>
</mask>
<path d="M10.3487 49.4531H3.16118C2.95285 49.4531 2.84868 49.349 2.84868 49.1406L2.97368 5.17188C2.97368 5.00521 3.05701 4.92188 3.22368 4.92188H15.5362C19.4528 4.92188 22.5466 6.11979 24.8174 8.51562C27.1091 10.8906 28.2549 14.1302 28.2549 18.2344C28.2549 21.2344 27.6612 23.849 26.4737 26.0781C25.2653 28.2865 23.7028 29.9948 21.7862 31.2031C19.8695 32.4115 17.7862 33.0156 15.5362 33.0156H10.6612V49.1406C10.6612 49.349 10.557 49.4531 10.3487 49.4531ZM15.5362 12.5156L10.6612 12.5781V25.2656H15.5362C16.8903 25.2656 18.0674 24.6198 19.0674 23.3281C20.0674 22.0156 20.5674 20.3177 20.5674 18.2344C20.5674 16.5677 20.1195 15.2031 19.2237 14.1406C18.3278 13.0573 17.0987 12.5156 15.5362 12.5156ZM39.5987 49.4531H32.3487C32.182 49.4531 32.0987 49.349 32.0987 49.1406L32.2237 5.17188C32.2237 5.00521 32.307 4.92188 32.4737 4.92188H45.4112C47.7237 4.92188 49.8487 5.48438 51.7862 6.60938C53.7237 7.73438 55.2653 9.24479 56.4112 11.1406C57.5778 13.0365 58.1612 15.1823 58.1612 17.5781C58.1612 19.1406 57.9216 20.5573 57.4424 21.8281C56.9633 23.099 56.4008 24.1719 55.7549 25.0469C55.1299 25.9219 54.557 26.5677 54.0362 26.9844C56.3487 29.5469 57.5049 32.5573 57.5049 36.0156L57.5674 49.1406C57.5674 49.349 57.4633 49.4531 57.2549 49.4531H50.0049C49.8383 49.4531 49.7549 49.3906 49.7549 49.2656V36.0156C49.7549 34.474 49.2133 33.1406 48.1299 32.0156C47.0466 30.8906 45.7133 30.3281 44.1299 30.3281H39.9112L39.8487 49.1406C39.8487 49.349 39.7653 49.4531 39.5987 49.4531ZM45.4112 12.5781H39.9112V22.6406H45.4112C46.7237 22.6406 47.8903 22.151 48.9112 21.1719C49.9528 20.1927 50.4737 18.9948 50.4737 17.5781C50.4737 16.224 49.9737 15.0573 48.9737 14.0781C47.9737 13.0781 46.7862 12.5781 45.4112 12.5781ZM73.5049 50.0781C71.2341 50.0781 69.1403 49.4948 67.2237 48.3281C65.3278 47.1615 63.7966 45.6094 62.6299 43.6719C61.4841 41.7135 60.9112 39.5677 60.9112 37.2344L60.9737 16.9531C60.9737 14.5781 61.5466 12.4427 62.6924 10.5469C63.8174 8.63021 65.3383 7.09896 67.2549 5.95312C69.1716 4.78646 71.2549 4.20312 73.5049 4.20312C75.8383 4.20312 77.932 4.77604 79.7862 5.92188C81.6612 7.06771 83.1612 8.60938 84.2862 10.5469C85.432 12.4635 86.0049 14.599 86.0049 16.9531L86.0674 37.2344C86.0674 39.5677 85.5049 41.7031 84.3799 43.6406C83.2341 45.599 81.7133 47.1615 79.8174 48.3281C77.9216 49.4948 75.8174 50.0781 73.5049 50.0781ZM73.5049 42.3594C74.7966 42.3594 75.9216 41.8385 76.8799 40.7969C77.8383 39.7344 78.3174 38.5469 78.3174 37.2344L78.2549 16.9531C78.2549 15.5365 77.807 14.3385 76.9112 13.3594C76.0153 12.3802 74.8799 11.8906 73.5049 11.8906C72.1924 11.8906 71.0674 12.3698 70.1299 13.3281C69.1924 14.2865 68.7237 15.4948 68.7237 16.9531V37.2344C68.7237 38.6302 69.1924 39.8385 70.1299 40.8594C71.0674 41.8594 72.1924 42.3594 73.5049 42.3594ZM101.411 50.0781C99.057 50.0781 96.9216 49.5156 95.0049 48.3906C93.1091 47.2656 91.6091 45.7135 90.5049 43.7344C89.4216 41.7344 88.8799 39.5052 88.8799 37.0469V34.0781C88.8799 33.9115 88.9633 33.8281 89.1299 33.8281H96.3799C96.5466 33.8281 96.6299 33.9427 96.6299 34.1719V37.0469C96.6299 38.6094 97.0778 39.8906 97.9737 40.8906C98.8695 41.8698 100.015 42.3594 101.411 42.3594C102.703 42.3594 103.817 41.8281 104.755 40.7656C105.692 39.6823 106.161 38.4427 106.161 37.0469V5.23438C106.161 5.06771 106.245 4.98438 106.411 4.98438H113.599C113.765 4.98438 113.849 5.08854 113.849 5.29688L113.911 37.0469C113.911 39.3802 113.349 41.5365 112.224 43.5156C111.078 45.5156 109.567 47.1094 107.692 48.2969C105.817 49.4844 103.724 50.0781 101.411 50.0781ZM132.38 49.4531H125.161C124.974 49.4531 124.88 49.349 124.88 49.1406V12.6406H116.567C116.359 12.6406 116.255 12.5365 116.255 12.3281L116.317 5.17188C116.317 5.00521 116.401 4.92188 116.567 4.92188H140.88C141.109 4.92188 141.224 5.00521 141.224 5.17188V12.3281C141.224 12.5365 141.14 12.6406 140.974 12.6406H132.567L132.63 49.1406C132.63 49.349 132.547 49.4531 132.38 49.4531ZM151.849 49.4531H144.599C144.432 49.4531 144.349 49.349 144.349 49.1406L144.474 5.17188C144.474 5.00521 144.557 4.92188 144.724 4.92188H157.661C159.974 4.92188 162.099 5.48438 164.036 6.60938C165.974 7.73438 167.515 9.24479 168.661 11.1406C169.828 13.0365 170.411 15.1823 170.411 17.5781C170.411 19.1406 170.172 20.5573 169.692 21.8281C169.213 23.099 168.651 24.1719 168.005 25.0469C167.38 25.9219 166.807 26.5677 166.286 26.9844C168.599 29.5469 169.755 32.5573 169.755 36.0156L169.817 49.1406C169.817 49.349 169.713 49.4531 169.505 49.4531H162.255C162.088 49.4531 162.005 49.3906 162.005 49.2656V36.0156C162.005 34.474 161.463 33.1406 160.38 32.0156C159.297 30.8906 157.963 30.3281 156.38 30.3281H152.161L152.099 49.1406C152.099 49.349 152.015 49.4531 151.849 49.4531ZM157.661 12.5781H152.161V22.6406H157.661C158.974 22.6406 160.14 22.151 161.161 21.1719C162.203 20.1927 162.724 18.9948 162.724 17.5781C162.724 16.224 162.224 15.0573 161.224 14.0781C160.224 13.0781 159.036 12.5781 157.661 12.5781ZM196.161 49.4531H175.474C175.307 49.4531 175.224 49.349 175.224 49.1406L175.286 5.17188C175.286 5.00521 175.37 4.92188 175.536 4.92188H196.099C196.265 4.92188 196.349 5.02604 196.349 5.23438V12.3906C196.349 12.5573 196.265 12.6406 196.099 12.6406H182.974V22.6406H196.099C196.265 22.6406 196.349 22.724 196.349 22.8906L196.411 30.1406C196.411 30.3073 196.328 30.3906 196.161 30.3906H182.974V41.5781H196.161C196.328 41.5781 196.411 41.6823 196.411 41.8906V49.2031C196.411 49.3698 196.328 49.4531 196.161 49.4531ZM223.036 49.4531H202.349C202.182 49.4531 202.099 49.349 202.099 49.1406L202.161 5.17188C202.161 5.00521 202.245 4.92188 202.411 4.92188H222.974C223.14 4.92188 223.224 5.02604 223.224 5.23438V12.3906C223.224 12.5573 223.14 12.6406 222.974 12.6406H209.849V22.6406H222.974C223.14 22.6406 223.224 22.724 223.224 22.8906L223.286 30.1406C223.286 30.3073 223.203 30.3906 223.036 30.3906H209.849V41.5781H223.036C223.203 41.5781 223.286 41.6823 223.286 41.8906V49.2031C223.286 49.3698 223.203 49.4531 223.036 49.4531Z" fill="#2E86AC"/>
<path d="M2.84868 49.1406L1.84868 49.1378V49.1406H2.84868ZM2.97368 5.17188L3.97368 5.17472V5.17188H2.97368ZM24.8174 8.51562L24.0916 9.20357L24.0978 9.20999L24.8174 8.51562ZM26.4737 26.0781L27.351 26.5582L27.3563 26.5483L26.4737 26.0781ZM10.6612 33.0156V32.0156H9.66118V33.0156H10.6612ZM15.5362 12.5156V11.5155L15.5234 11.5157L15.5362 12.5156ZM10.6612 12.5781L10.6484 11.5782L9.66118 11.5909V12.5781H10.6612ZM10.6612 25.2656H9.66118V26.2656H10.6612V25.2656ZM19.0674 23.3281L19.8582 23.9403L19.8629 23.9342L19.0674 23.3281ZM19.2237 14.1406L18.453 14.7779L18.4592 14.7852L19.2237 14.1406ZM10.3487 49.4531V48.4531H3.16118V49.4531V50.4531H10.3487V49.4531ZM3.16118 49.4531V48.4531C3.21116 48.4531 3.43231 48.4663 3.63391 48.6679C3.83551 48.8695 3.84868 49.0906 3.84868 49.1406H2.84868H1.84868C1.84868 49.3989 1.91393 49.7763 2.2197 50.0821C2.52546 50.3879 2.90287 50.4531 3.16118 50.4531V49.4531ZM2.84868 49.1406L3.84867 49.1435L3.97367 5.17472L2.97368 5.17188L1.97368 5.16903L1.84868 49.1378L2.84868 49.1406ZM2.97368 5.17188H3.97368C3.97368 5.24269 3.9553 5.47947 3.74329 5.69148C3.53127 5.90349 3.29449 5.92188 3.22368 5.92188V4.92188V3.92188C2.9862 3.92188 2.62442 3.98192 2.32907 4.27727C2.03373 4.57261 1.97368 4.9344 1.97368 5.17188H2.97368ZM3.22368 4.92188V5.92188H15.5362V4.92188V3.92188H3.22368V4.92188ZM15.5362 4.92188V5.92188C19.2338 5.92188 22.0447 7.04391 24.0916 9.20354L24.8174 8.51562L25.5432 7.82771C23.0485 5.19567 19.6719 3.92188 15.5362 3.92188V4.92188ZM24.8174 8.51562L24.0978 9.20999C26.1683 11.3557 27.2549 14.3229 27.2549 18.2344H28.2549H29.2549C29.2549 13.9376 28.0499 10.4255 25.537 7.82126L24.8174 8.51562ZM28.2549 18.2344H27.2549C27.2549 21.1011 26.6883 23.5484 25.5911 25.608L26.4737 26.0781L27.3563 26.5483C28.6341 24.1495 29.2549 21.3676 29.2549 18.2344H28.2549ZM26.4737 26.0781L25.5964 25.5981C24.4605 27.6741 23.0102 29.2494 21.2529 30.3572L21.7862 31.2031L22.3195 32.0491C24.3955 30.7402 26.0702 28.8988 27.3509 26.5581L26.4737 26.0781ZM21.7862 31.2031L21.2529 30.3572C19.4947 31.4656 17.596 32.0156 15.5362 32.0156V33.0156V34.0156C17.9763 34.0156 20.2443 33.3573 22.3195 32.0491L21.7862 31.2031ZM15.5362 33.0156V32.0156H10.6612V33.0156V34.0156H15.5362V33.0156ZM10.6612 33.0156H9.66118V49.1406H10.6612H11.6612V33.0156H10.6612ZM10.6612 49.1406H9.66118C9.66118 49.0906 9.67435 48.8695 9.87595 48.6679C10.0775 48.4663 10.2987 48.4531 10.3487 48.4531V49.4531V50.4531C10.607 50.4531 10.9844 50.3879 11.2902 50.0821C11.5959 49.7763 11.6612 49.3989 11.6612 49.1406H10.6612ZM15.5362 12.5156L15.5234 11.5157L10.6484 11.5782L10.6612 12.5781L10.674 13.578L15.549 13.5155L15.5362 12.5156ZM10.6612 12.5781H9.66118V25.2656H10.6612H11.6612V12.5781H10.6612ZM10.6612 25.2656V26.2656H15.5362V25.2656V24.2656H10.6612V25.2656ZM15.5362 25.2656V26.2656C17.2646 26.2656 18.7124 25.4203 19.8582 23.9403L19.0674 23.3281L18.2767 22.716C17.4225 23.8193 16.5161 24.2656 15.5362 24.2656V25.2656ZM19.0674 23.3281L19.8629 23.9342C21.027 22.4062 21.5674 20.4784 21.5674 18.2344H20.5674H19.5674C19.5674 20.157 19.1078 21.625 18.272 22.7221L19.0674 23.3281ZM20.5674 18.2344H21.5674C21.5674 16.3809 21.065 14.7732 19.9882 13.496L19.2237 14.1406L18.4592 14.7852C19.174 15.6331 19.5674 16.7545 19.5674 18.2344H20.5674ZM19.2237 14.1406L19.9943 13.5034C18.8858 12.1628 17.3592 11.5156 15.5362 11.5156V12.5156V13.5156C16.8382 13.5156 17.7699 13.9518 18.453 14.7779L19.2237 14.1406ZM32.0987 49.1406L31.0987 49.1378V49.1406H32.0987ZM32.2237 5.17188L33.2237 5.17472V5.17188H32.2237ZM56.4112 11.1406L55.5553 11.6579L55.5595 11.6647L56.4112 11.1406ZM55.7549 25.0469L54.9504 24.453L54.9457 24.4593L54.9412 24.4656L55.7549 25.0469ZM54.0362 26.9844L53.4115 26.2035L52.5828 26.8665L53.2938 27.6543L54.0362 26.9844ZM57.5049 36.0156H56.5049L56.5049 36.0204L57.5049 36.0156ZM57.5674 49.1406H58.5674L58.5674 49.1359L57.5674 49.1406ZM39.9112 30.3281V29.3281H38.9145L38.9112 30.3248L39.9112 30.3281ZM39.8487 49.1406L38.8487 49.1373V49.1406H39.8487ZM39.9112 12.5781V11.5781H38.9112V12.5781H39.9112ZM39.9112 22.6406H38.9112V23.6406H39.9112V22.6406ZM48.9112 21.1719L48.2262 20.4432L48.219 20.4502L48.9112 21.1719ZM48.9737 14.0781L48.2665 14.7853L48.2741 14.7926L48.9737 14.0781ZM39.5987 49.4531V48.4531H32.3487V49.4531V50.4531H39.5987V49.4531ZM32.3487 49.4531V48.4531C32.486 48.4531 32.7475 48.5071 32.942 48.7503C33.1025 48.9509 33.0987 49.138 33.0987 49.1406H32.0987H31.0987C31.0987 49.3516 31.1365 49.6949 31.3803 49.9997C31.6582 50.3471 32.0446 50.4531 32.3487 50.4531V49.4531ZM32.0987 49.1406L33.0987 49.1435L33.2237 5.17472L32.2237 5.17188L31.2237 5.16903L31.0987 49.1378L32.0987 49.1406ZM32.2237 5.17188H33.2237C33.2237 5.24269 33.2053 5.47947 32.9933 5.69148C32.7813 5.90349 32.5445 5.92188 32.4737 5.92188V4.92188V3.92188C32.2362 3.92188 31.8744 3.98192 31.5791 4.27727C31.2837 4.57261 31.2237 4.9344 31.2237 5.17188H32.2237ZM32.4737 4.92188V5.92188H45.4112V4.92188V3.92188H32.4737V4.92188ZM45.4112 4.92188V5.92188C47.5532 5.92188 49.5041 6.44066 51.284 7.47416L51.7862 6.60938L52.2883 5.74459C50.1932 4.52809 47.8941 3.92188 45.4112 3.92188V4.92188ZM51.7862 6.60938L51.284 7.47416C53.0781 8.51586 54.4974 9.90745 55.5554 11.6579L56.4112 11.1406L57.267 10.6234C56.0333 8.58213 54.3693 6.95289 52.2883 5.74459L51.7862 6.60938ZM56.4112 11.1406L55.5595 11.6647C56.6218 13.3909 57.1612 15.3527 57.1612 17.5781H58.1612H59.1612C59.1612 15.0119 58.5339 12.682 57.2628 10.6165L56.4112 11.1406ZM58.1612 17.5781H57.1612C57.1612 19.038 56.9375 20.3329 56.5067 21.4753L57.4424 21.8281L58.3781 22.1809C58.9057 20.7817 59.1612 19.2433 59.1612 17.5781H58.1612ZM57.4424 21.8281L56.5067 21.4753C56.0523 22.6805 55.53 23.6676 54.9504 24.453L55.7549 25.0469L56.5595 25.6407C57.2715 24.6761 57.8742 23.5174 58.3781 22.1809L57.4424 21.8281ZM55.7549 25.0469L54.9412 24.4656C54.3413 25.3055 53.8302 25.8685 53.4115 26.2035L54.0362 26.9844L54.6609 27.7652C55.2838 27.2669 55.9186 26.5383 56.5687 25.6281L55.7549 25.0469ZM54.0362 26.9844L53.2938 27.6543C55.4401 30.0327 56.5049 32.8043 56.5049 36.0156H57.5049H58.5049C58.5049 32.3103 57.2572 29.0611 54.7786 26.3144L54.0362 26.9844ZM57.5049 36.0156L56.5049 36.0204L56.5674 49.1454L57.5674 49.1406L58.5674 49.1359L58.5049 36.0109L57.5049 36.0156ZM57.5674 49.1406H56.5674C56.5674 49.0906 56.5806 48.8695 56.7822 48.6679C56.9838 48.4663 57.2049 48.4531 57.2549 48.4531V49.4531V50.4531C57.5132 50.4531 57.8906 50.3879 58.1964 50.0821C58.5022 49.7763 58.5674 49.3989 58.5674 49.1406H57.5674ZM57.2549 49.4531V48.4531H50.0049V49.4531V50.4531H57.2549V49.4531ZM50.0049 49.4531V48.4531C50.0178 48.4531 50.2097 48.4505 50.4174 48.6063C50.5309 48.6913 50.6244 48.8066 50.6844 48.9415C50.7418 49.0707 50.7549 49.1868 50.7549 49.2656H49.7549H48.7549C48.7549 49.5721 48.8723 49.9474 49.2174 50.2062C49.5085 50.4245 49.8254 50.4531 50.0049 50.4531V49.4531ZM49.7549 49.2656H50.7549V36.0156H49.7549H48.7549V49.2656H49.7549ZM49.7549 36.0156H50.7549C50.7549 34.2115 50.1104 32.6306 48.8503 31.322L48.1299 32.0156L47.4096 32.7093C48.3161 33.6506 48.7549 34.7364 48.7549 36.0156H49.7549ZM48.1299 32.0156L48.8503 31.322C47.5755 29.9982 45.9808 29.3281 44.1299 29.3281V30.3281V31.3281C45.4457 31.3281 46.5177 31.783 47.4096 32.7093L48.1299 32.0156ZM44.1299 30.3281V29.3281H39.9112V30.3281V31.3281H44.1299V30.3281ZM39.9112 30.3281L38.9112 30.3248L38.8487 49.1373L39.8487 49.1406L40.8487 49.1439L40.9112 30.3314L39.9112 30.3281ZM39.8487 49.1406H38.8487C38.8487 49.138 38.8448 48.9509 39.0053 48.7503C39.1999 48.5071 39.4613 48.4531 39.5987 48.4531V49.4531V50.4531C39.9027 50.4531 40.2892 50.3471 40.567 49.9997C40.8109 49.6949 40.8487 49.3516 40.8487 49.1406H39.8487ZM45.4112 12.5781V11.5781H39.9112V12.5781V13.5781H45.4112V12.5781ZM39.9112 12.5781H38.9112V22.6406H39.9112H40.9112V12.5781H39.9112ZM39.9112 22.6406V23.6406H45.4112V22.6406V21.6406H39.9112V22.6406ZM45.4112 22.6406V23.6406C47.0029 23.6406 48.4123 23.0361 49.6034 21.8936L48.9112 21.1719L48.219 20.4502C47.3684 21.266 46.4445 21.6406 45.4112 21.6406V22.6406ZM48.9112 21.1719L49.5961 21.9005C50.8367 20.7343 51.4737 19.2736 51.4737 17.5781H50.4737H49.4737C49.4737 18.716 49.069 19.6511 48.2263 20.4432L48.9112 21.1719ZM50.4737 17.5781H51.4737C51.4737 15.9452 50.8582 14.5238 49.6733 13.3636L48.9737 14.0781L48.2741 14.7926C49.0892 15.5908 49.4737 16.5028 49.4737 17.5781H50.4737ZM48.9737 14.0781L49.6808 13.371C48.4992 12.1895 47.0597 11.5781 45.4112 11.5781V12.5781V13.5781C46.5126 13.5781 47.4481 13.9668 48.2666 14.7852L48.9737 14.0781ZM67.2237 48.3281L66.6996 49.1798L66.7037 49.1823L67.2237 48.3281ZM62.6299 43.6719L61.7667 44.1769L61.7732 44.1877L62.6299 43.6719ZM60.9112 37.2344L59.9112 37.2313V37.2344H60.9112ZM60.9737 16.9531L61.9737 16.9562V16.9531H60.9737ZM62.6924 10.5469L63.5483 11.0642L63.5548 11.0531L62.6924 10.5469ZM67.2549 5.95312L67.7681 6.81147L67.7749 6.80732L67.2549 5.95312ZM79.7862 5.92188L79.2605 6.77256L79.2647 6.77516L79.7862 5.92188ZM84.2862 10.5469L83.4213 11.0491L83.4279 11.06L84.2862 10.5469ZM86.0049 16.9531H85.0049L85.0049 16.9562L86.0049 16.9531ZM86.0674 37.2344H87.0674L87.0674 37.2313L86.0674 37.2344ZM84.3799 43.6406L85.243 44.1456L85.2447 44.1428L84.3799 43.6406ZM76.8799 40.7969L77.6159 41.474L77.6225 41.4666L76.8799 40.7969ZM78.3174 37.2344H79.3174L79.3174 37.2313L78.3174 37.2344ZM78.2549 16.9531H77.2549L77.2549 16.9562L78.2549 16.9531ZM70.1299 40.8594L69.3934 41.5358L69.4004 41.5433L70.1299 40.8594ZM73.5049 50.0781V49.0781C71.4152 49.0781 69.5016 48.544 67.7436 47.4739L67.2237 48.3281L66.7037 49.1823C68.779 50.4456 71.053 51.0781 73.5049 51.0781V50.0781ZM67.2237 48.3281L67.7478 47.4765C65.9903 46.3949 64.5722 44.9589 63.4866 43.156L62.6299 43.6719L61.7732 44.1877C63.021 46.2598 64.6654 47.928 66.6996 49.1798L67.2237 48.3281ZM62.6299 43.6719L63.493 43.1669C62.4395 41.3662 61.9112 39.3955 61.9112 37.2344H60.9112H59.9112C59.9112 39.7399 60.5287 42.0609 61.7668 44.1769L62.6299 43.6719ZM60.9112 37.2344L61.9112 37.2375L61.9737 16.9562L60.9737 16.9531L59.9737 16.95L59.9112 37.2313L60.9112 37.2344ZM60.9737 16.9531H61.9737C61.9737 14.7468 62.5036 12.7926 63.5483 11.0641L62.6924 10.5469L61.8366 10.0296C60.5896 12.0928 59.9737 14.4094 59.9737 16.9531H60.9737ZM62.6924 10.5469L63.5548 11.0531C64.5944 9.28197 65.9948 7.87153 67.7681 6.81144L67.2549 5.95312L66.7418 5.09481C64.6817 6.32639 63.0405 7.97844 61.83 10.0407L62.6924 10.5469ZM67.2549 5.95312L67.7749 6.80732C69.5344 5.7363 71.4378 5.20312 73.5049 5.20312V4.20312V3.20312C71.0721 3.20312 68.8088 3.83662 66.735 5.09893L67.2549 5.95312ZM73.5049 4.20312V5.20312C75.6662 5.20312 77.5755 5.73126 79.2605 6.77255L79.7862 5.92188L80.3119 5.0712C78.2885 3.82082 76.0103 3.20312 73.5049 3.20312V4.20312ZM79.7862 5.92188L79.2647 6.77516C80.995 7.83255 82.3782 9.25234 83.4214 11.049L84.2862 10.5469L85.151 10.0447C83.9442 7.96641 82.3274 6.30287 80.3076 5.06859L79.7862 5.92188ZM84.2862 10.5469L83.4279 11.06C84.4759 12.813 85.0049 14.7694 85.0049 16.9531H86.0049H87.0049C87.0049 14.4285 86.3882 12.1141 85.1445 10.0338L84.2862 10.5469ZM86.0049 16.9531L85.0049 16.9562L85.0674 37.2375L86.0674 37.2344L87.0674 37.2313L87.0049 16.95L86.0049 16.9531ZM86.0674 37.2344H85.0674C85.0674 39.399 84.5478 41.36 83.5151 43.1385L84.3799 43.6406L85.2447 44.1428C86.462 42.0463 87.0674 39.7365 87.0674 37.2344H86.0674ZM84.3799 43.6406L83.5168 43.1356C82.4522 44.9552 81.0467 46.3975 79.2933 47.4765L79.8174 48.3281L80.3415 49.1798C82.3799 47.9254 84.016 46.2427 85.243 44.1456L84.3799 43.6406ZM79.8174 48.3281L79.2933 47.4765C77.5614 48.5423 75.6399 49.0781 73.5049 49.0781V50.0781V51.0781C75.9949 51.0781 78.2818 50.4473 80.3415 49.1798L79.8174 48.3281ZM73.5049 42.3594V43.3594C75.1048 43.3594 76.4884 42.6994 77.6159 41.4739L76.8799 40.7969L76.144 40.1198C75.3548 40.9776 74.4884 41.3594 73.5049 41.3594V42.3594ZM76.8799 40.7969L77.6225 41.4666C78.7303 40.2384 79.3174 38.8175 79.3174 37.2344H78.3174H77.3174C77.3174 38.2763 76.9462 39.2304 76.1374 40.1271L76.8799 40.7969ZM78.3174 37.2344L79.3174 37.2313L79.2549 16.95L78.2549 16.9531L77.2549 16.9562L77.3174 37.2375L78.3174 37.2344ZM78.2549 16.9531H79.2549C79.2549 15.305 78.7255 13.861 77.649 12.6844L76.9112 13.3594L76.1734 14.0344C76.8885 14.8161 77.2549 15.7679 77.2549 16.9531H78.2549ZM76.9112 13.3594L77.649 12.6844C76.5561 11.4898 75.1491 10.8906 73.5049 10.8906V11.8906V12.8906C74.6108 12.8906 75.4746 13.2706 76.1734 14.0344L76.9112 13.3594ZM73.5049 11.8906V10.8906C71.917 10.8906 70.5362 11.4828 69.4151 12.6288L70.1299 13.3281L70.8448 14.0274C71.5987 13.2568 72.4679 12.8906 73.5049 12.8906V11.8906ZM70.1299 13.3281L69.4151 12.6288C68.2779 13.7913 67.7237 15.2586 67.7237 16.9531H68.7237H69.7237C69.7237 15.731 70.107 14.7816 70.8448 14.0274L70.1299 13.3281ZM68.7237 16.9531H67.7237V37.2344H68.7237H69.7237V16.9531H68.7237ZM68.7237 37.2344H67.7237C67.7237 38.8787 68.2851 40.329 69.3934 41.5358L70.1299 40.8594L70.8665 40.183C70.0997 39.3481 69.7237 38.3817 69.7237 37.2344H68.7237ZM70.1299 40.8594L69.4004 41.5433C70.5175 42.7349 71.9025 43.3594 73.5049 43.3594V42.3594V41.3594C72.4824 41.3594 71.6174 40.9839 70.8595 40.1754L70.1299 40.8594ZM95.0049 48.3906L94.4946 49.2506L94.4987 49.253L95.0049 48.3906ZM90.5049 43.7344L89.6256 44.2107L89.6316 44.2216L90.5049 43.7344ZM97.9737 40.8906L97.2288 41.5579L97.2359 41.5656L97.9737 40.8906ZM104.755 40.7656L105.505 41.4273L105.511 41.42L104.755 40.7656ZM113.849 5.29688H112.849V5.29884L113.849 5.29688ZM113.911 37.0469H114.911V37.0449L113.911 37.0469ZM112.224 43.5156L113.091 44.0127L113.093 44.0098L112.224 43.5156ZM101.411 50.0781V49.0781C99.224 49.0781 97.2651 48.5577 95.5111 47.5282L95.0049 48.3906L94.4987 49.253C96.5781 50.4735 98.89 51.0781 101.411 51.0781V50.0781ZM95.0049 48.3906L95.5153 47.5306C93.7756 46.4983 92.3989 45.0768 91.3782 43.2472L90.5049 43.7344L89.6316 44.2216C90.8193 46.3503 92.4426 48.0329 94.4946 49.2506L95.0049 48.3906ZM90.5049 43.7344L91.3842 43.2581C90.3864 41.416 89.8799 39.3527 89.8799 37.0469H88.8799H87.8799C87.8799 39.6577 88.4568 42.0527 89.6256 44.2107L90.5049 43.7344ZM88.8799 37.0469H89.8799V34.0781H88.8799H87.8799V37.0469H88.8799ZM88.8799 34.0781H89.8799C89.8799 34.1489 89.8615 34.3857 89.6495 34.5977C89.4375 34.8097 89.2007 34.8281 89.1299 34.8281V33.8281V32.8281C88.8924 32.8281 88.5307 32.8882 88.2353 33.1835C87.94 33.4789 87.8799 33.8406 87.8799 34.0781H88.8799ZM89.1299 33.8281V34.8281H96.3799V33.8281V32.8281H89.1299V33.8281ZM96.3799 33.8281V34.8281C96.3077 34.8281 96.1968 34.8156 96.0726 34.7587C95.943 34.6992 95.8356 34.608 95.7587 34.5022C95.6861 34.4024 95.6554 34.3107 95.6425 34.2571C95.6296 34.2041 95.6299 34.172 95.6299 34.1719H96.6299H97.6299C97.6299 33.9658 97.5978 33.6306 97.3762 33.3259C97.1115 32.962 96.719 32.8281 96.3799 32.8281V33.8281ZM96.6299 34.1719H95.6299V37.0469H96.6299H97.6299V34.1719H96.6299ZM96.6299 37.0469H95.6299C95.6299 38.8128 96.1422 40.3449 97.2288 41.5579L97.9737 40.8906L98.7185 40.2234C98.0135 39.4364 97.6299 38.406 97.6299 37.0469H96.6299ZM97.9737 40.8906L97.2359 41.5656C98.3319 42.7637 99.7511 43.3594 101.411 43.3594V42.3594V41.3594C100.28 41.3594 99.4071 40.9759 98.7115 40.2156L97.9737 40.8906ZM101.411 42.3594V43.3594C103.02 43.3594 104.398 42.6815 105.505 41.4272L104.755 40.7656L104.005 40.104C103.237 40.9748 102.386 41.3594 101.411 41.3594V42.3594ZM104.755 40.7656L105.511 41.42C106.601 40.1602 107.161 38.6899 107.161 37.0469H106.161H105.161C105.161 38.1955 104.784 39.2044 103.999 40.1112L104.755 40.7656ZM106.161 37.0469H107.161V5.23438H106.161H105.161V37.0469H106.161ZM106.161 5.23438H107.161C107.161 5.30519 107.143 5.54197 106.931 5.75398C106.719 5.96599 106.482 5.98438 106.411 5.98438V4.98438V3.98438C106.174 3.98438 105.812 4.04442 105.517 4.33977C105.221 4.63511 105.161 4.9969 105.161 5.23438H106.161ZM106.411 4.98438V5.98438H113.599V4.98438V3.98438H106.411V4.98438ZM113.599 4.98438V5.98438C113.461 5.98438 113.2 5.93039 113.005 5.6872C112.845 5.48661 112.849 5.29955 112.849 5.29688H113.849H114.849C114.849 5.08587 114.811 4.74256 114.567 4.4378C114.289 4.09044 113.903 3.98438 113.599 3.98438V4.98438ZM113.849 5.29688L112.849 5.29884L112.911 37.0488L113.911 37.0469L114.911 37.0449L114.849 5.29491L113.849 5.29688ZM113.911 37.0469H112.911C112.911 39.2115 112.391 41.1968 111.354 43.0215L112.224 43.5156L113.093 44.0098C114.306 41.8761 114.911 39.5489 114.911 37.0469H113.911ZM112.224 43.5156L111.356 43.0185C110.288 44.8829 108.889 46.3551 107.157 47.4521L107.692 48.2969L108.227 49.1417C110.245 47.8637 111.868 46.1483 113.091 44.0127L112.224 43.5156ZM107.692 48.2969L107.157 47.4521C105.449 48.5338 103.543 49.0781 101.411 49.0781V50.0781V51.0781C103.905 51.0781 106.186 50.4349 108.227 49.1417L107.692 48.2969ZM124.88 12.6406H125.88V11.6406H124.88V12.6406ZM116.255 12.3281L115.255 12.3194V12.3281H116.255ZM116.317 5.17188L117.317 5.18061V5.17188H116.317ZM132.567 12.6406V11.6406H131.566L131.567 12.6423L132.567 12.6406ZM132.63 49.1406H133.63V49.1389L132.63 49.1406ZM132.38 49.4531V48.4531H125.161V49.4531V50.4531H132.38V49.4531ZM125.161 49.4531V48.4531C125.25 48.4531 125.493 48.4827 125.694 48.706C125.876 48.9093 125.88 49.1151 125.88 49.1406H124.88H123.88C123.88 49.3744 123.93 49.7365 124.207 50.044C124.502 50.3714 124.884 50.4531 125.161 50.4531V49.4531ZM124.88 49.1406H125.88V12.6406H124.88H123.88V49.1406H124.88ZM124.88 12.6406V11.6406H116.567V12.6406V13.6406H124.88V12.6406ZM116.567 12.6406V11.6406C116.617 11.6406 116.839 11.6538 117.04 11.8554C117.242 12.057 117.255 12.2781 117.255 12.3281H116.255H115.255C115.255 12.5864 115.32 12.9638 115.626 13.2696C115.932 13.5754 116.309 13.6406 116.567 13.6406V12.6406ZM116.255 12.3281L117.255 12.3369L117.317 5.18061L116.317 5.17188L115.317 5.16314L115.255 12.3194L116.255 12.3281ZM116.317 5.17188H117.317C117.317 5.24269 117.299 5.47947 117.087 5.69148C116.875 5.90349 116.638 5.92188 116.567 5.92188V4.92188V3.92188C116.33 3.92188 115.968 3.98192 115.673 4.27727C115.377 4.57261 115.317 4.9344 115.317 5.17188H116.317ZM116.567 4.92188V5.92188H140.88V4.92188V3.92188H116.567V4.92188ZM140.88 4.92188V5.92188C140.88 5.92188 140.848 5.92219 140.795 5.90935C140.741 5.89635 140.649 5.86568 140.55 5.79311C140.444 5.71616 140.353 5.60885 140.293 5.47915C140.236 5.35496 140.224 5.2441 140.224 5.17188H141.224H142.224C142.224 4.83279 142.09 4.4403 141.726 4.17564C141.421 3.95402 141.086 3.92188 140.88 3.92188V4.92188ZM141.224 5.17188H140.224V12.3281H141.224H142.224V5.17188H141.224ZM141.224 12.3281H140.224C140.224 12.3254 140.22 12.1384 140.38 11.9378C140.575 11.6946 140.836 11.6406 140.974 11.6406V12.6406V13.6406C141.278 13.6406 141.664 13.5346 141.942 13.1872C142.186 12.8824 142.224 12.5391 142.224 12.3281H141.224ZM140.974 12.6406V11.6406H132.567V12.6406V13.6406H140.974V12.6406ZM132.567 12.6406L131.567 12.6423L131.63 49.1423L132.63 49.1406L133.63 49.1389L133.567 12.6389L132.567 12.6406ZM132.63 49.1406H131.63C131.63 49.138 131.626 48.9509 131.787 48.7503C131.981 48.5071 132.243 48.4531 132.38 48.4531V49.4531V50.4531C132.684 50.4531 133.07 50.3471 133.348 49.9997C133.592 49.6949 133.63 49.3516 133.63 49.1406H132.63ZM144.349 49.1406L143.349 49.1378V49.1406H144.349ZM144.474 5.17188L145.474 5.17472V5.17188H144.474ZM168.661 11.1406L167.805 11.6579L167.81 11.6647L168.661 11.1406ZM168.005 25.0469L167.2 24.453L167.196 24.4593L167.191 24.4656L168.005 25.0469ZM166.286 26.9844L165.661 26.2035L164.833 26.8665L165.544 27.6543L166.286 26.9844ZM169.755 36.0156H168.755L168.755 36.0204L169.755 36.0156ZM169.817 49.1406H170.817L170.817 49.1359L169.817 49.1406ZM152.161 30.3281V29.3281H151.164L151.161 30.3248L152.161 30.3281ZM152.099 49.1406L151.099 49.1373V49.1406H152.099ZM152.161 12.5781V11.5781H151.161V12.5781H152.161ZM152.161 22.6406H151.161V23.6406H152.161V22.6406ZM161.161 21.1719L160.476 20.4432L160.469 20.4502L161.161 21.1719ZM161.224 14.0781L160.517 14.7853L160.524 14.7926L161.224 14.0781ZM151.849 49.4531V48.4531H144.599V49.4531V50.4531H151.849V49.4531ZM144.599 49.4531V48.4531C144.736 48.4531 144.997 48.5071 145.192 48.7503C145.353 48.9509 145.349 49.138 145.349 49.1406H144.349H143.349C143.349 49.3516 143.387 49.6949 143.63 49.9997C143.908 50.3471 144.295 50.4531 144.599 50.4531V49.4531ZM144.349 49.1406L145.349 49.1435L145.474 5.17472L144.474 5.17188L143.474 5.16903L143.349 49.1378L144.349 49.1406ZM144.474 5.17188H145.474C145.474 5.24269 145.455 5.47947 145.243 5.69148C145.031 5.90349 144.794 5.92188 144.724 5.92188V4.92188V3.92188C144.486 3.92188 144.124 3.98192 143.829 4.27727C143.534 4.57261 143.474 4.9344 143.474 5.17188H144.474ZM144.724 4.92188V5.92188H157.661V4.92188V3.92188H144.724V4.92188ZM157.661 4.92188V5.92188C159.803 5.92188 161.754 6.44066 163.534 7.47416L164.036 6.60938L164.538 5.74459C162.443 4.52809 160.144 3.92188 157.661 3.92188V4.92188ZM164.036 6.60938L163.534 7.47416C165.328 8.51586 166.747 9.90745 167.805 11.6579L168.661 11.1406L169.517 10.6234C168.283 8.58213 166.619 6.95289 164.538 5.74459L164.036 6.60938ZM168.661 11.1406L167.81 11.6647C168.872 13.3909 169.411 15.3527 169.411 17.5781H170.411H171.411C171.411 15.0119 170.784 12.682 169.513 10.6165L168.661 11.1406ZM170.411 17.5781H169.411C169.411 19.038 169.188 20.3329 168.757 21.4753L169.692 21.8281L170.628 22.1809C171.156 20.7817 171.411 19.2433 171.411 17.5781H170.411ZM169.692 21.8281L168.757 21.4753C168.302 22.6805 167.78 23.6676 167.2 24.453L168.005 25.0469L168.81 25.6407C169.521 24.6761 170.124 23.5174 170.628 22.1809L169.692 21.8281ZM168.005 25.0469L167.191 24.4656C166.591 25.3055 166.08 25.8685 165.661 26.2035L166.286 26.9844L166.911 27.7652C167.534 27.2669 168.169 26.5383 168.819 25.6281L168.005 25.0469ZM166.286 26.9844L165.544 27.6543C167.69 30.0327 168.755 32.8043 168.755 36.0156H169.755H170.755C170.755 32.3103 169.507 29.0611 167.029 26.3144L166.286 26.9844ZM169.755 36.0156L168.755 36.0204L168.817 49.1454L169.817 49.1406L170.817 49.1359L170.755 36.0109L169.755 36.0156ZM169.817 49.1406H168.817C168.817 49.0906 168.831 48.8695 169.032 48.6679C169.234 48.4663 169.455 48.4531 169.505 48.4531V49.4531V50.4531C169.763 50.4531 170.141 50.3879 170.446 50.0821C170.752 49.7763 170.817 49.3989 170.817 49.1406H169.817ZM169.505 49.4531V48.4531H162.255V49.4531V50.4531H169.505V49.4531ZM162.255 49.4531V48.4531C162.268 48.4531 162.46 48.4505 162.667 48.6063C162.781 48.6913 162.874 48.8066 162.934 48.9415C162.992 49.0707 163.005 49.1868 163.005 49.2656H162.005H161.005C161.005 49.5721 161.122 49.9474 161.467 50.2062C161.758 50.4245 162.075 50.4531 162.255 50.4531V49.4531ZM162.005 49.2656H163.005V36.0156H162.005H161.005V49.2656H162.005ZM162.005 36.0156H163.005C163.005 34.2115 162.36 32.6306 161.1 31.322L160.38 32.0156L159.66 32.7093C160.566 33.6506 161.005 34.7364 161.005 36.0156H162.005ZM160.38 32.0156L161.1 31.322C159.826 29.9982 158.231 29.3281 156.38 29.3281V30.3281V31.3281C157.696 31.3281 158.768 31.783 159.66 32.7093L160.38 32.0156ZM156.38 30.3281V29.3281H152.161V30.3281V31.3281H156.38V30.3281ZM152.161 30.3281L151.161 30.3248L151.099 49.1373L152.099 49.1406L153.099 49.1439L153.161 30.3314L152.161 30.3281ZM152.099 49.1406H151.099C151.099 49.138 151.095 48.9509 151.255 48.7503C151.45 48.5071 151.711 48.4531 151.849 48.4531V49.4531V50.4531C152.153 50.4531 152.539 50.3471 152.817 49.9997C153.061 49.6949 153.099 49.3516 153.099 49.1406H152.099ZM157.661 12.5781V11.5781H152.161V12.5781V13.5781H157.661V12.5781ZM152.161 12.5781H151.161V22.6406H152.161H153.161V12.5781H152.161ZM152.161 22.6406V23.6406H157.661V22.6406V21.6406H152.161V22.6406ZM157.661 22.6406V23.6406C159.253 23.6406 160.662 23.0361 161.853 21.8936L161.161 21.1719L160.469 20.4502C159.618 21.266 158.694 21.6406 157.661 21.6406V22.6406ZM161.161 21.1719L161.846 21.9005C163.087 20.7343 163.724 19.2736 163.724 17.5781H162.724H161.724C161.724 18.716 161.319 19.6511 160.476 20.4432L161.161 21.1719ZM162.724 17.5781H163.724C163.724 15.9452 163.108 14.5238 161.923 13.3636L161.224 14.0781L160.524 14.7926C161.339 15.5908 161.724 16.5028 161.724 17.5781H162.724ZM161.224 14.0781L161.931 13.371C160.749 12.1895 159.31 11.5781 157.661 11.5781V12.5781V13.5781C158.763 13.5781 159.698 13.9668 160.517 14.7852L161.224 14.0781ZM175.224 49.1406L174.224 49.1392V49.1406H175.224ZM175.286 5.17188L176.286 5.1733V5.17188H175.286ZM182.974 12.6406V11.6406H181.974V12.6406H182.974ZM182.974 22.6406H181.974V23.6406H182.974V22.6406ZM196.349 22.8906H195.349L195.349 22.8992L196.349 22.8906ZM196.411 30.1406H197.411L197.411 30.132L196.411 30.1406ZM182.974 30.3906V29.3906H181.974V30.3906H182.974ZM182.974 41.5781H181.974V42.5781H182.974V41.5781ZM196.161 49.4531V48.4531H175.474V49.4531V50.4531H196.161V49.4531ZM175.474 49.4531V48.4531C175.611 48.4531 175.872 48.5071 176.067 48.7503C176.228 48.9509 176.224 49.138 176.224 49.1406H175.224H174.224C174.224 49.3516 174.262 49.6949 174.505 49.9997C174.783 50.3471 175.17 50.4531 175.474 50.4531V49.4531ZM175.224 49.1406L176.224 49.142L176.286 5.1733L175.286 5.17188L174.286 5.17045L174.224 49.1392L175.224 49.1406ZM175.286 5.17188H176.286C176.286 5.24269 176.268 5.47947 176.056 5.69148C175.844 5.90349 175.607 5.92188 175.536 5.92188V4.92188V3.92188C175.299 3.92188 174.937 3.98192 174.642 4.27727C174.346 4.57261 174.286 4.9344 174.286 5.17188H175.286ZM175.536 4.92188V5.92188H196.099V4.92188V3.92188H175.536V4.92188ZM196.099 4.92188V5.92188C195.961 5.92188 195.7 5.86789 195.505 5.6247C195.345 5.42411 195.349 5.23705 195.349 5.23438H196.349H197.349C197.349 5.02337 197.311 4.68006 197.067 4.3753C196.789 4.02794 196.403 3.92188 196.099 3.92188V4.92188ZM196.349 5.23438H195.349V12.3906H196.349H197.349V5.23438H196.349ZM196.349 12.3906H195.349C195.349 12.3198 195.367 12.083 195.579 11.871C195.791 11.659 196.028 11.6406 196.099 11.6406V12.6406V13.6406C196.336 13.6406 196.698 13.5806 196.993 13.2852C197.289 12.9899 197.349 12.6281 197.349 12.3906H196.349ZM196.099 12.6406V11.6406H182.974V12.6406V13.6406H196.099V12.6406ZM182.974 12.6406H181.974V22.6406H182.974H183.974V12.6406H182.974ZM182.974 22.6406V23.6406H196.099V22.6406V21.6406H182.974V22.6406ZM196.099 22.6406V23.6406C196.028 23.6406 195.791 23.6222 195.579 23.4102C195.367 23.1982 195.349 22.9614 195.349 22.8906H196.349H197.349C197.349 22.6531 197.289 22.2914 196.993 21.996C196.698 21.7007 196.336 21.6406 196.099 21.6406V22.6406ZM196.349 22.8906L195.349 22.8992L195.411 30.1492L196.411 30.1406L197.411 30.132L197.349 22.882L196.349 22.8906ZM196.411 30.1406H195.411C195.411 30.0698 195.43 29.833 195.642 29.621C195.854 29.409 196.09 29.3906 196.161 29.3906V30.3906V31.3906C196.399 31.3906 196.76 31.3306 197.056 31.0352C197.351 30.7399 197.411 30.3781 197.411 30.1406H196.411ZM196.161 30.3906V29.3906H182.974V30.3906V31.3906H196.161V30.3906ZM182.974 30.3906H181.974V41.5781H182.974H183.974V30.3906H182.974ZM182.974 41.5781V42.5781H196.161V41.5781V40.5781H182.974V41.5781ZM196.161 41.5781V42.5781C196.024 42.5781 195.762 42.5241 195.568 42.2809C195.407 42.0804 195.411 41.8933 195.411 41.8906H196.411H197.411C197.411 41.6796 197.373 41.3363 197.13 41.0316C196.852 40.6842 196.465 40.5781 196.161 40.5781V41.5781ZM196.411 41.8906H195.411V49.2031H196.411H197.411V41.8906H196.411ZM196.411 49.2031H195.411C195.411 49.1323 195.43 48.8955 195.642 48.6835C195.854 48.4715 196.09 48.4531 196.161 48.4531V49.4531V50.4531C196.399 50.4531 196.76 50.3931 197.056 50.0977C197.351 49.8024 197.411 49.4406 197.411 49.2031H196.411ZM202.099 49.1406L201.099 49.1392V49.1406H202.099ZM202.161 5.17188L203.161 5.1733V5.17188H202.161ZM209.849 12.6406V11.6406H208.849V12.6406H209.849ZM209.849 22.6406H208.849V23.6406H209.849V22.6406ZM223.224 22.8906H222.224L222.224 22.8992L223.224 22.8906ZM223.286 30.1406H224.286L224.286 30.132L223.286 30.1406ZM209.849 30.3906V29.3906H208.849V30.3906H209.849ZM209.849 41.5781H208.849V42.5781H209.849V41.5781ZM223.036 49.4531V48.4531H202.349V49.4531V50.4531H223.036V49.4531ZM202.349 49.4531V48.4531C202.486 48.4531 202.747 48.5071 202.942 48.7503C203.103 48.9509 203.099 49.138 203.099 49.1406H202.099H201.099C201.099 49.3516 201.137 49.6949 201.38 49.9997C201.658 50.3471 202.045 50.4531 202.349 50.4531V49.4531ZM202.099 49.1406L203.099 49.142L203.161 5.1733L202.161 5.17188L201.161 5.17045L201.099 49.1392L202.099 49.1406ZM202.161 5.17188H203.161C203.161 5.24269 203.143 5.47947 202.931 5.69148C202.719 5.90349 202.482 5.92188 202.411 5.92188V4.92188V3.92188C202.174 3.92188 201.812 3.98192 201.517 4.27727C201.221 4.57261 201.161 4.9344 201.161 5.17188H202.161ZM202.411 4.92188V5.92188H222.974V4.92188V3.92188H202.411V4.92188ZM222.974 4.92188V5.92188C222.836 5.92188 222.575 5.86789 222.38 5.6247C222.22 5.42411 222.224 5.23705 222.224 5.23438H223.224H224.224C224.224 5.02337 224.186 4.68006 223.942 4.3753C223.664 4.02794 223.278 3.92188 222.974 3.92188V4.92188ZM223.224 5.23438H222.224V12.3906H223.224H224.224V5.23438H223.224ZM223.224 12.3906H222.224C222.224 12.3198 222.242 12.083 222.454 11.871C222.666 11.659 222.903 11.6406 222.974 11.6406V12.6406V13.6406C223.211 13.6406 223.573 13.5806 223.868 13.2852C224.164 12.9899 224.224 12.6281 224.224 12.3906H223.224ZM222.974 12.6406V11.6406H209.849V12.6406V13.6406H222.974V12.6406ZM209.849 12.6406H208.849V22.6406H209.849H210.849V12.6406H209.849ZM209.849 22.6406V23.6406H222.974V22.6406V21.6406H209.849V22.6406ZM222.974 22.6406V23.6406C222.903 23.6406 222.666 23.6222 222.454 23.4102C222.242 23.1982 222.224 22.9614 222.224 22.8906H223.224H224.224C224.224 22.6531 224.164 22.2914 223.868 21.996C223.573 21.7007 223.211 21.6406 222.974 21.6406V22.6406ZM223.224 22.8906L222.224 22.8992L222.286 30.1492L223.286 30.1406L224.286 30.132L224.224 22.882L223.224 22.8906ZM223.286 30.1406H222.286C222.286 30.0698 222.305 29.833 222.517 29.621C222.729 29.409 222.965 29.3906 223.036 29.3906V30.3906V31.3906C223.274 31.3906 223.635 31.3306 223.931 31.0352C224.226 30.7399 224.286 30.3781 224.286 30.1406H223.286ZM223.036 30.3906V29.3906H209.849V30.3906V31.3906H223.036V30.3906ZM209.849 30.3906H208.849V41.5781H209.849H210.849V30.3906H209.849ZM209.849 41.5781V42.5781H223.036V41.5781V40.5781H209.849V41.5781ZM223.036 41.5781V42.5781C222.899 42.5781 222.637 42.5241 222.443 42.2809C222.282 42.0804 222.286 41.8933 222.286 41.8906H223.286H224.286C224.286 41.6796 224.248 41.3363 224.005 41.0316C223.727 40.6842 223.34 40.5781 223.036 40.5781V41.5781ZM223.286 41.8906H222.286V49.2031H223.286H224.286V41.8906H223.286ZM223.286 49.2031H222.286C222.286 49.1323 222.305 48.8955 222.517 48.6835C222.729 48.4715 222.965 48.4531 223.036 48.4531V49.4531V50.4531C223.274 50.4531 223.635 50.3931 223.931 50.0977C224.226 49.8024 224.286 49.4406 224.286 49.2031H223.286Z" fill="black" mask="url(#path-1-outside-1_0_1)"/>
<path d="M246.461 42.043H281.668" stroke="#000001" stroke-width="2"/>
<rect x="272.156" y="30.9922" width="19" height="19" rx="4.5" fill="#2E86AC" stroke="black"/>
<path d="M281.672 42.043L264.068 11.5526" stroke="#000001" stroke-width="2"/>
<rect x="254.555" y="0.5" width="19" height="19" rx="4.5" fill="#2E86AC" stroke="black"/>
<path d="M246.461 42.043L264.065 11.5526" stroke="#000001" stroke-width="2"/>
<rect x="236.953" y="30.9922" width="19" height="19" rx="4.5" fill="#2E86AC" stroke="black"/>
<path d="M246.461 42.043H265.783" stroke="#000001" stroke-width="2"/>
</svg>
